PathFileType  4	(X/Y/Z) C:\Users\antoi\Documents\MyRepositories\mobilecap\ResultsAnalysis
DataRate	CameraRate	NumFrames	NumMarkers	Units	OrigDataRate	OrigDataStartFrame	OrigNumFrames
100.0	100.0	5	51	mm	100.0	38	299
Frame#	Time	r_knee			r_shank_antsup			r_ankle			r_calc			r_5meta			r_toe			L_knee			L_shank_antsup			L_ankle			L_calc			L_5meta			L_toe			r_sh2			r_sh3			r_sh4			L_sh2			L_sh3			r_thigh1			r_thigh2			r_thigh3			r_thigh4			r_thigh5			L_thigh1			L_thigh2			L_thigh3			L_thigh4			r.ASIS			r.PSIS			L.ASIS			L.PSIS			C7			R_Shoulder			L_Shoulder			R_Sternum			L_Sternum			R_humerus			R_elbow_med			R_elbow_lat			R_forearm			R_wrist_radius			R_wrist_ulna			L_humerus			L_elbow_med			L_elbow_lat			L_forearm			L_wrist_radius			L_wrist_ulna			R_HJC			L_HJC			R_HJC_reg			L_HJC_reg			
		X1	Y1	Z1	X2	Y2	Z2	X3	Y3	Z3	X4	Y4	Z4	X5	Y5	Z5	X6	Y6	Z6	X7	Y7	Z7	X8	Y8	Z8	X9	Y9	Z9	X10	Y10	Z10	X11	Y11	Z11	X12	Y12	Z12	X13	Y13	Z13	X14	Y14	Z14	X15	Y15	Z15	X16	Y16	Z16	X17	Y17	Z17	X18	Y18	Z18	X19	Y19	Z19	X20	Y20	Z20	X21	Y21	Z21	X22	Y22	Z22	X23	Y23	Z23	X24	Y24	Z24	X25	Y25	Z25	X26	Y26	Z26	X27	Y27	Z27	X28	Y28	Z28	X29	Y29	Z29	X30	Y30	Z30	X31	Y31	Z31	X32	Y32	Z32	X33	Y33	Z33	X34	Y34	Z34	X35	Y35	Z35	X36	Y36	Z36	X37	Y37	Z37	X38	Y38	Z38	X39	Y39	Z39	X40	Y40	Z40	X41	Y41	Z41	X42	Y42	Z42	X43	Y43	Z43	X44	Y44	Z44	X45	Y45	Z45	X46	Y46	Z46	X47	Y47	Z47	X48	Y48	Z48	X49	Y49	Z49	X50	Y50	Z50	X51	Y51	Z51	

38	0.37000000	-1218.35225	781.90382	-417.52443	-1184.40635	667.59367	-434.24827	-1258.44225	397.30125	-453.15843	-1306.03272	357.58113	-505.39083	-1145.26358	349.75398	-418.89025	-1108.89153	368.24915	-462.22360	-1215.49752	786.01609	-750.68592	-1179.17220	681.95035	-709.00132	-1261.89170	397.83431	-735.12681	-1304.45952	367.16149	-698.98944	-1143.05536	346.67655	-752.15669	-1103.19407	367.01971	-700.13587	-1197.48217	556.93142	-446.92459	-1240.42420	667.67715	-382.84739	-1268.96028	560.86739	-405.86174	-1230.07590	704.07775	-778.86603	-1242.50228	583.10395	-789.24299	-1130.73088	1081.89440	-429.34669	-1127.24874	972.88986	-426.17988	-1170.65195	946.81108	-381.30708	-1233.91628	1077.74918	-384.67067	-1225.19073	962.10162	-379.70288	-1141.71673	1073.62582	-757.81802	-1133.20385	934.03998	-753.11841	-1249.42659	1071.55728	-792.15903	-1240.85625	930.31357	-781.58894	-1109.43519	1234.90061	-463.56802	-1284.51386	1309.20962	-531.43622	-1106.06692	1235.14163	-709.77900	-1285.97978	1311.32701	-648.82227	-1224.35685	1756.26487	-587.76545	-1178.47685	1714.90101	-434.17484	-1172.66198	1722.34304	-744.33030	-1110.12502	1688.08406	-566.23271	-1109.41647	1688.50866	-609.53810	-1167.71254	1586.72244	-367.35291	-1257.55174	1397.71319	-415.97455	-1232.27924	1403.45966	-344.60352	-1191.15666	1283.74015	-323.82576	-1169.77442	1181.91666	-321.32578	-1203.82228	1179.64614	-303.57308	-1160.10300	1569.96902	-807.24000	-1244.87877	1385.96936	-751.91527	-1222.45803	1395.62675	-825.14078	-1180.75476	1306.96535	-849.87938	-1158.01819	1174.56368	-844.28844	-1183.01232	1174.64408	-864.30738	-1211.09203	1180.21492	-490.70024	-1205.61644	1176.84644	-679.96888	-1191.23296	1176.97310	-498.09949	-1193.26197	1179.90380	-660.57494	
39	0.38000000	-1217.52025	781.85665	-417.77976	-1183.56236	667.27881	-434.56900	-1258.30828	397.49022	-453.12343	-1305.94946	357.90264	-505.41004	-1145.26570	349.78980	-418.95228	-1108.88333	368.28614	-462.23146	-1214.93616	786.14878	-750.43268	-1178.60278	681.61729	-708.66527	-1261.84329	397.88549	-735.15366	-1304.48099	367.11902	-698.99115	-1143.06550	346.66699	-752.14828	-1103.19191	367.02780	-700.13553	-1196.92176	556.75564	-447.12687	-1239.69387	667.60508	-383.11848	-1268.83657	562.05131	-405.75733	-1229.01479	704.31993	-778.94840	-1242.06437	583.15617	-789.13908	-1130.88918	1082.16787	-429.19867	-1127.11681	973.29643	-425.82480	-1170.37533	946.80717	-381.29263	-1234.12198	1077.57344	-384.53133	-1225.05905	962.01042	-379.85891	-1140.91071	1073.50945	-758.30696	-1132.78042	934.46866	-752.60944	-1249.68148	1071.62739	-792.45166	-1240.76497	930.26838	-781.37914	-1109.62437	1234.62197	-463.54271	-1284.42922	1309.46446	-531.36041	-1106.14491	1234.83435	-709.72678	-1285.87393	1311.62964	-648.73299	-1222.09599	1756.10353	-587.92927	-1176.50976	1714.92975	-434.17978	-1170.50101	1722.34506	-744.31106	-1108.28357	1687.67629	-566.22832	-1107.53286	1688.19282	-609.37895	-1166.25615	1586.72204	-367.27670	-1257.34241	1398.34063	-415.67316	-1232.07876	1404.05420	-344.29649	-1191.70848	1284.02136	-323.28062	-1171.08353	1182.10602	-320.54300	-1205.15662	1180.12915	-302.81647	-1158.79134	1569.92836	-807.25295	-1245.07739	1386.64560	-752.12934	-1222.41249	1396.14288	-825.30558	-1181.50392	1307.04736	-849.93740	-1160.35152	1174.23208	-844.59416	-1185.23348	1174.85713	-864.88731	-1211.41829	1180.24281	-490.65286	-1205.93012	1176.88012	-679.92124	-1191.55175	1176.90704	-498.10076	-1193.55139	1179.90391	-660.55852	
40	0.39000000	-1216.60099	781.85875	-418.03535	-1182.76834	667.03911	-434.74047	-1258.14167	397.62274	-453.12452	-1305.79062	358.11969	-505.46831	-1145.28047	349.82804	-418.94607	-1108.89038	368.34116	-462.21605	-1214.44069	786.15787	-750.25396	-1177.92224	681.37846	-708.21728	-1261.79844	397.94875	-735.18221	-1304.48467	367.13213	-699.07172	-1143.07472	346.66970	-752.13969	-1103.18844	367.06253	-700.16803	-1196.37080	556.51487	-447.29345	-1238.95708	667.55658	-383.27042	-1268.51163	562.72014	-405.79288	-1228.07568	704.48023	-778.93553	-1241.60854	583.29451	-788.81347	-1131.09148	1082.46290	-428.94942	-1126.98299	973.64067	-425.60937	-1170.03965	946.93814	-381.18045	-1234.29618	1077.42850	-384.49731	-1224.94695	961.94065	-379.95148	-1141.14898	1073.61994	-758.12876	-1132.49168	934.77650	-752.25274	-1249.98721	1071.55870	-792.42514	-1240.68965	930.27915	-781.37124	-1109.83197	1234.36580	-463.38927	-1284.35461	1309.68804	-531.23826	-1106.30562	1234.52895	-709.57093	-1285.79002	1311.90119	-648.61340	-1219.91573	1756.04031	-587.90972	-1174.47791	1715.04792	-433.95984	-1168.29439	1722.28509	-744.18250	-1106.33858	1687.21230	-566.23519	-1105.40003	1687.61373	-609.08865	-1164.75368	1586.71016	-367.26977	-1257.21177	1398.97928	-415.17580	-1231.78072	1404.66928	-343.85656	-1192.27936	1284.37979	-322.56377	-1172.42460	1182.34568	-319.68389	-1206.53093	1180.72326	-301.88203	-1157.42855	1569.97686	-807.16055	-1245.13690	1387.27609	-752.15989	-1222.37479	1396.63830	-825.32362	-1182.31721	1307.25438	-849.94531	-1162.79408	1174.19949	-845.23501	-1187.62514	1175.11197	-865.49368	-1211.76916	1180.27818	-490.51203	-1206.26068	1176.88709	-679.77930	-1191.89102	1176.82268	-497.97096	-1193.87767	1179.88585	-660.42642	
41	0.40000000	-1215.64330	781.89770	-418.26852	-1182.00632	666.86077	-434.89825	-1258.04572	397.61739	-453.22407	-1305.63608	358.04873	-505.57190	-1145.31992	349.89446	-418.87267	-1108.91787	368.40539	-462.20425	-1213.82453	786.08965	-750.06223	-1177.16504	681.20621	-707.77031	-1261.75611	398.00959	-735.21911	-1304.50543	367.08605	-698.99557	-1143.08600	346.68395	-752.12822	-1103.21376	367.08826	-700.16140	-1195.83127	556.27459	-447.46754	-1238.12193	667.50589	-383.58871	-1267.96245	562.48095	-406.11270	-1227.31419	704.52418	-778.57939	-1241.16618	583.40435	-788.27953	-1131.33319	1082.78079	-428.68297	-1126.82663	973.86505	-425.72944	-1169.72611	947.12324	-381.07500	-1234.50549	1077.25769	-384.42095	-1224.74725	961.76815	-380.00889	-1142.26414	1073.90403	-757.38153	-1132.35392	934.88264	-752.04103	-1250.25374	1071.35067	-791.95697	-1240.51967	930.11171	-781.04122	-1110.04421	1234.13199	-463.09276	-1284.26782	1309.92776	-531.10626	-1106.82164	1234.31900	-709.29498	-1285.66921	1312.12808	-648.44516	-1217.71064	1756.08831	-587.82494	-1172.26081	1715.06605	-433.78785	-1166.12168	1722.23476	-744.02316	-1104.34404	1686.80715	-566.09689	-1103.41285	1686.89925	-608.99500	-1163.23913	1586.80890	-367.05594	-1257.17551	1399.64888	-414.59452	-1231.43672	1405.29171	-343.38177	-1192.84685	1284.75847	-321.86373	-1173.80301	1182.55348	-318.92535	-1207.90758	1181.27821	-300.97547	-1156.11374	1570.02596	-807.01528	-1245.87129	1388.24782	-752.81587	-1222.46509	1397.43726	-825.78707	-1183.25354	1307.60159	-850.14470	-1165.28041	1174.30378	-845.98666	-1189.94394	1175.63673	-866.19471	-1212.16772	1180.35551	-490.26823	-1206.71097	1176.90177	-679.53581	-1192.39098	1176.82947	-497.69187	-1194.33135	1179.87605	-660.15947	
42	0.41000000	-1214.66550	781.88704	-418.52249	-1181.15718	666.68472	-435.21345	-1258.02343	397.56544	-453.30269	-1305.56732	357.88877	-505.61091	-1145.36938	349.97401	-418.82305	-1108.94142	368.44987	-462.20817	-1212.92949	786.05744	-749.89315	-1176.39457	680.98351	-707.40163	-1261.70926	398.04816	-735.24481	-1304.54550	367.00469	-698.84437	-1143.10354	346.69685	-752.11150	-1103.25542	367.10252	-700.11504	-1195.26029	556.02448	-447.74347	-1237.25808	667.44538	-384.03190	-1267.46217	562.29173	-406.34360	-1226.55697	704.47248	-777.95443	-1240.77616	583.45817	-787.78346	-1131.56509	1083.05609	-428.51189	-1126.65660	974.00296	-426.06597	-1169.50867	947.23119	-381.23433	-1234.83692	1077.06324	-384.19436	-1224.45339	961.45542	-380.10255	-1143.69542	1074.26241	-756.43943	-1132.13886	934.94019	-751.74987	-1250.38024	1071.04033	-791.11836	-1240.26312	929.74150	-780.26993	-1110.22599	1233.85181	-462.82818	-1284.12828	1310.20448	-530.97555	-1107.58245	1234.22119	-709.03255	-1285.56850	1312.37383	-648.30196	-1215.32210	1756.12946	-587.79885	-1169.88877	1714.99018	-433.81814	-1163.82925	1722.22712	-743.95748	-1102.27872	1686.42726	-565.84730	-1101.37594	1686.38321	-608.95247	-1161.73334	1586.98786	-366.64255	-1257.11031	1400.37367	-414.09726	-1231.11221	1405.93330	-342.97242	-1193.40826	1285.12048	-321.30164	-1175.22030	1182.68674	-318.26854	-1209.29652	1181.78737	-300.22047	-1154.86180	1570.03543	-807.01509	-1247.31694	1389.51630	-754.15333	-1222.71504	1398.43955	-826.76322	-1184.21285	1307.99815	-850.54795	-1167.82794	1174.28403	-846.42713	-1191.74537	1176.50364	-867.26859	-1212.58126	1180.44085	-490.05945	-1207.27682	1176.97537	-679.33115	-1192.94808	1176.92929	-497.38042	-1194.94240	1179.93325	-659.84516	
